<svg width="50" height="50" viewBox="0 0 50 50" xmlns="http://www.w3.org/2000/svg">
<circle cx="25" cy="25" r="24.5" stroke="white" stroke-opacity="0.3"/>
<path d="M32.8941 24.4721H34.9992C34.9992 19.0724 30.9226 15 25.5155 15V17.1052C29.7911 17.1052 32.8941 20.2029 32.8941 24.4721Z"/>
<path d="M25.5261 21.3165C27.7396 21.3165 28.6838 22.2607 28.6838 24.4742H30.7889C30.7889 21.0797 28.9206 19.2113 25.5261 19.2113V21.3165ZM29.128 27.0457C28.9257 26.8618 28.6599 26.7638 28.3868 26.7723C28.1136 26.7807 27.8544 26.895 27.6638 27.0909L25.145 29.6813C24.5387 29.5655 23.3199 29.1856 22.0652 27.9341C20.8105 26.6783 20.4305 25.4563 20.3179 24.8542L22.9062 22.3343C23.1024 22.144 23.2169 21.8847 23.2253 21.6114C23.2337 21.3382 23.1355 21.0723 22.9515 20.8702L19.0622 16.5936C18.878 16.3908 18.6221 16.2678 18.3487 16.2507C18.0753 16.2336 17.806 16.3238 17.5981 16.502L15.314 18.4609C15.132 18.6435 15.0234 18.8866 15.0087 19.144C14.9929 19.4071 14.6919 25.6405 19.5253 30.476C23.7419 34.6916 29.0238 35 30.4784 35C30.6911 35 30.8216 34.9937 30.8563 34.9916C31.1137 34.9772 31.3566 34.8681 31.5384 34.6853L33.4962 32.4001C33.6745 32.1923 33.7649 31.9231 33.748 31.6497C33.7311 31.3763 33.6083 31.1203 33.4057 30.936L29.128 27.0457Z"/>
</svg>
