<svg width="50" height="50" viewBox="0 0 50 50" xmlns="http://www.w3.org/2000/svg">
<circle cx="25" cy="25" r="24.5" stroke="white" stroke-opacity="0.3"/>
<path d="M34.1462 31.4976C33.0702 32.4498 31.5107 33.1327 29.4678 33.5463C27.425 33.96 25.3197 34.081 23.152 33.9093L19.0351 37V33.1366C17.6784 32.7151 16.6179 32.1688 15.8538 31.4976C14.9493 30.7015 14.2476 29.558 13.7485 28.0673C13.2495 26.5766 13 25.0546 13 23.5015C13 21.9483 13.2495 20.4263 13.7485 18.9356C14.2476 17.4449 14.9532 16.2976 15.8655 15.4937C16.7778 14.6898 18.0838 14.0732 19.7836 13.6439C21.4834 13.2146 23.2222 13 25 13C26.7778 13 28.5166 13.2146 30.2164 13.6439C31.9162 14.0732 33.2222 14.6898 34.1345 15.4937C35.0468 16.2976 35.7524 17.4449 36.2515 18.9356C36.7505 20.4263 37 21.9483 37 23.5015C37 25.0546 36.7505 26.5766 36.2515 28.0673C35.7524 29.558 35.0507 30.7015 34.1462 31.4976ZM27.9474 25.761L29.4678 26.0185C29.3431 24.1454 28.6218 22.5454 27.3041 21.2185C25.9864 19.8917 24.3918 19.1659 22.5205 19.041L22.7778 20.5629C24.1189 20.7346 25.2729 21.3044 26.2398 22.2722C27.2066 23.24 27.7758 24.4029 27.9474 25.761ZM23.0351 22.1317L23.3158 23.8176C23.9396 24.1298 24.3996 24.5902 24.6959 25.199L26.3801 25.48C26.193 24.6527 25.7953 23.9385 25.1871 23.3376C24.5789 22.7366 23.8616 22.3346 23.0351 22.1317ZM20.5322 23.5132V22.0146C20.5322 21.7493 20.4347 21.4839 20.2398 21.2185C20.0448 20.9532 19.8382 20.762 19.6199 20.6449C19.4016 20.5278 19.2378 20.5161 19.1287 20.6098L18.0526 21.7102C17.4444 22.319 17.3548 23.2673 17.7836 24.5551C18.2125 25.8429 19.0312 27.0917 20.2398 28.3015C21.4483 29.5112 22.6959 30.3307 23.9825 30.76C25.269 31.1893 26.2086 31.0995 26.8012 30.4907L27.9006 29.3902C28.0097 29.2966 28.0058 29.1366 27.8889 28.9102C27.7719 28.6839 27.5809 28.4771 27.3158 28.2898C27.0507 28.1024 26.7856 28.0088 26.5205 28.0088H25.0234L24.1579 28.758C23.4717 28.5707 22.6179 27.9659 21.5965 26.9434C20.575 25.921 19.9708 25.0585 19.7836 24.3561L20.5322 23.5132ZM22.0292 16.0205L22.2632 17.5424C23.8226 17.5737 25.2651 17.9834 26.5906 18.7717C27.9162 19.56 28.9688 20.6137 29.7485 21.9327C30.5283 23.2517 30.9415 24.6917 30.9883 26.2527L32.5088 26.5102C32.5088 25.0898 32.232 23.7317 31.6784 22.4361C31.1248 21.1405 30.3801 20.0244 29.4444 19.0878C28.5088 18.1512 27.3938 17.4059 26.0994 16.8517C24.8051 16.2976 23.4483 16.0205 22.0292 16.0205Z"/>
</svg>
