<svg width="50" height="50" viewBox="0 0 50 50" xmlns="http://www.w3.org/2000/svg">
<circle cx="25" cy="25" r="24.5" stroke="white" stroke-opacity="0.3"/>
<path d="M25.75 35.5C23.8125 35.5 21.9922 35.0312 20.2891 34.0937L13 37L15.9062 29.7109C14.9688 28.0078 14.5 26.1875 14.5 24.25C14.5 22.7187 14.7969 21.2617 15.3906 19.8789C15.9844 18.4961 16.7852 17.3008 17.793 16.293C18.8008 15.2852 19.9961 14.4844 21.3789 13.8906C22.7617 13.2969 24.2188 13 25.75 13C27.2812 13 28.7383 13.2969 30.1211 13.8906C31.5039 14.4844 32.6992 15.2852 33.707 16.293C34.7148 17.3008 35.5156 18.4961 36.1094 19.8789C36.7031 21.2617 37 22.7187 37 24.25C37 25.7812 36.7031 27.2383 36.1094 28.6211C35.5156 30.0039 34.7148 31.1992 33.707 32.207C32.6992 33.2148 31.5039 34.0156 30.1211 34.6094C28.7383 35.2031 27.2812 35.5 25.75 35.5ZM29.5 26.5H28L27.1562 27.25C26.4531 27.0625 25.5898 26.457 24.5664 25.4336C23.543 24.4102 22.9375 23.5469 22.75 22.8437L23.5 22V20.5C23.5 20.2344 23.4062 19.9687 23.2188 19.7031C23.0312 19.4375 22.8242 19.2461 22.5977 19.1289C22.3711 19.0117 22.2109 19 22.1172 19.0937L21.0156 20.1953C20.4062 20.8047 20.3164 21.7539 20.7461 23.043C21.1758 24.332 21.9961 25.582 23.207 26.793C24.418 28.0039 25.668 28.8242 26.957 29.2539C28.2461 29.6836 29.1953 29.5937 29.8047 28.9844L30.9062 27.8828C31 27.7891 30.9883 27.6289 30.8711 27.4023C30.7539 27.1758 30.5625 26.9687 30.2969 26.7812C30.0312 26.5937 29.7656 26.5 29.5 26.5Z"/>
</svg>
