<?xml version="1.0" encoding="utf-8"?><svg viewBox="0 0 50 50" xmlns="http://www.w3.org/2000/svg" xmlns:xlink="http://www.w3.org/1999/xlink"><style>:root>svg{display:none}:root>svg:target{display:block}</style><svg viewBox="0 0 50 50" id="Call" xmlns="http://www.w3.org/2000/svg"><circle cx="25" cy="25" r="24.5" stroke="#fff" stroke-opacity=".3"/><path d="M32.894 24.472H35c0-5.4-4.076-9.472-9.484-9.472v2.105c4.276 0 7.38 3.098 7.38 7.367z"/><path d="M25.526 21.317c2.214 0 3.158.944 3.158 3.157h2.105c0-3.394-1.868-5.263-5.263-5.263v2.106zm3.602 5.729a1.053 1.053 0 00-1.464.045l-2.519 2.59c-.606-.116-1.825-.495-3.08-1.747-1.255-1.256-1.635-2.478-1.747-3.08l2.588-2.52a1.052 1.052 0 00.046-1.464l-3.89-4.276a1.053 1.053 0 00-1.464-.092l-2.284 1.959c-.182.183-.29.426-.305.683-.016.263-.317 6.497 4.516 11.332C23.742 34.692 29.024 35 30.478 35c.213 0 .344-.006.378-.008.258-.015.5-.124.682-.307l1.958-2.285a1.053 1.053 0 00-.09-1.464l-4.278-3.89z"/></svg><svg viewBox="0 0 50 50" id="Telegram" xmlns="http://www.w3.org/2000/svg"><circle cx="25" cy="25" r="24.5" stroke="#fff" stroke-opacity=".3"/><path d="M33.937 17.639l-3.32 15.274c-.25 1.079-.903 1.347-1.832.839l-5.058-3.637-2.44 2.29c-.27.264-.497.484-1.017.484l.363-5.026 9.375-8.265c.408-.354-.088-.55-.633-.196l-11.59 7.12-4.99-1.524c-1.086-.33-1.105-1.059.226-1.567l19.517-7.335c.903-.33 1.694.196 1.4 1.543z"/></svg><svg viewBox="0 0 50 50" id="Viber" xmlns="http://www.w3.org/2000/svg"><circle cx="25" cy="25" r="24.5" stroke="#fff" stroke-opacity=".3"/><path d="M34.146 31.498c-1.076.952-2.635 1.635-4.678 2.048a22.658 22.658 0 01-6.316.363L19.035 37v-3.863c-1.357-.422-2.417-.968-3.181-1.64-.905-.796-1.606-1.939-2.105-3.43a14.294 14.294 0 010-9.131c.499-1.491 1.204-2.638 2.117-3.442.912-.804 2.218-1.42 3.918-1.85A21.22 21.22 0 0125 13c1.778 0 3.517.215 5.216.644 1.7.43 3.006 1.046 3.919 1.85.912.804 1.617 1.95 2.117 3.442a14.294 14.294 0 010 9.131c-.5 1.491-1.201 2.634-2.106 3.43zm-6.199-5.737l1.52.258c-.124-1.874-.845-3.474-2.163-4.8-1.318-1.327-2.912-2.053-4.784-2.178l.258 1.522c1.34.172 2.495.741 3.462 1.71a5.844 5.844 0 011.707 3.488zm-4.912-3.63l.28 1.687a2.963 2.963 0 011.38 1.381l1.685.281a4.282 4.282 0 00-1.193-2.142 4.553 4.553 0 00-2.152-1.206zm-2.503 1.382v-1.498c0-.266-.097-.531-.292-.797-.195-.265-.402-.456-.62-.573-.218-.117-.382-.129-.491-.035l-1.076 1.1c-.609.609-.698 1.557-.27 2.845.43 1.288 1.248 2.537 2.457 3.747 1.208 1.21 2.456 2.029 3.743 2.458 1.286.43 2.226.34 2.818-.27l1.1-1.1c.109-.093.105-.253-.012-.48-.117-.226-.308-.433-.573-.62-.265-.188-.53-.281-.796-.281h-1.497l-.865.749c-.686-.187-1.54-.792-2.562-1.815-1.021-1.022-1.625-1.885-1.812-2.587l.748-.843zm1.497-7.493l.234 1.522a8.665 8.665 0 014.328 1.23 8.884 8.884 0 013.157 3.16 8.874 8.874 0 011.24 4.32l1.52.258c0-1.42-.276-2.778-.83-4.074-.553-1.296-1.298-2.412-2.234-3.348-.935-.937-2.05-1.682-3.345-2.236a10.236 10.236 0 00-4.07-.832z"/></svg><svg viewBox="0 0 50 50" id="WhatsApp" xmlns="http://www.w3.org/2000/svg"><circle cx="25" cy="25" r="24.5" stroke="#fff" stroke-opacity=".3"/><path d="M25.75 35.5a11.15 11.15 0 01-5.46-1.406L13 37l2.906-7.29a11.151 11.151 0 01-1.406-5.46c0-1.531.297-2.988.89-4.371.594-1.383 1.395-2.578 2.403-3.586s2.203-1.809 3.586-2.402c1.383-.594 2.84-.891 4.371-.891 1.531 0 2.988.297 4.371.89 1.383.594 2.578 1.395 3.586 2.403s1.809 2.203 2.402 3.586c.594 1.383.891 2.84.891 4.371 0 1.531-.297 2.988-.89 4.371-.594 1.383-1.395 2.578-2.403 3.586s-2.203 1.809-3.586 2.402c-1.383.594-2.84.891-4.371.891zm3.75-9H28l-.844.75c-.703-.188-1.566-.793-2.59-1.816-1.023-1.024-1.628-1.887-1.816-2.59L23.5 22v-1.5c0-.266-.094-.531-.281-.797-.188-.265-.395-.457-.621-.574-.227-.117-.387-.129-.48-.035l-1.102 1.101c-.61.61-.7 1.559-.27 2.848.43 1.289 1.25 2.539 2.461 3.75 1.211 1.21 2.461 2.031 3.75 2.46 1.29.43 2.238.34 2.848-.269l1.101-1.101c.094-.094.082-.254-.035-.48-.117-.227-.308-.434-.574-.622-.266-.187-.531-.281-.797-.281z"/></svg><svg fill="none" viewBox="0 0 14 14" id="arrow-right" xmlns="http://www.w3.org/2000/svg"><path d="M5.524 12.524L7 14l7-7-7-7-1.476 1.476 4.48 4.48H0v2.088h10.005l-4.48 4.48z" fill="#E0E7EA"/></svg><svg viewBox="0 0 18 18" id="cross" xmlns="http://www.w3.org/2000/svg"><path d="M15.75 0L9 6.75 2.25 0 0 2.25 6.75 9 0 15.75 2.25 18 9 11.25 15.75 18 18 15.75 11.25 9 18 2.25 15.75 0z"/></svg><svg viewBox="0 0 12 7" id="dropdown-arrow" xmlns="http://www.w3.org/2000/svg"><path d="M.75 1.79L6 6.5l5.25-4.71L9.672.376 6 3.67 2.328.375.75 1.791z"/></svg><svg viewBox="0 0 18 18" id="plus" xmlns="http://www.w3.org/2000/svg"><path d="M17.5 7.857v-.5h-6.857V.5H7.357v6.857H.5v3.286h6.857V17.5h3.286v-6.857H17.5V7.857z" stroke="#fff"/></svg><svg viewBox="0 0 8 12" id="small-arrow-right" xmlns="http://www.w3.org/2000/svg"><path d="M2.198.09L7.09 6l-4.893 5.909-1.47-1.776L4.15 6 .727 1.867 2.197.09z"/></svg></svg>